<svg width="1280" height="320" viewBox="0 0 1280 320" fill="none" xmlns="http://www.w3.org/2000/svg">

  <rect width="1280" height="320" fill="#FAF8F4"></rect>
  <defs>
    <pattern id="dots" x="0" y="0" width="32" height="32" patternUnits="userSpaceOnUse">
      <circle cx="16" cy="16" r="0.8" fill="rgba(33,30,24,0.04)"></circle>
    </pattern>
  </defs>
  <rect width="1280" height="320" fill="url(#dots)"></rect>


  <g transform="translate(600, 54)">
    <rect width="80" height="80" rx="18" fill="#3231bc"></rect>
    <rect x="18.7" y="16" width="42.7" height="13.3" rx="5.3" fill="#C2A158"></rect>
    <circle cx="25.3" cy="20" r="1.3" fill="rgba(255,255,255,0.7)"></circle>
    <rect x="29.3" y="19" width="13.3" height="1.7" rx="0.85" fill="rgba(255,255,255,0.5)"></rect>
    <circle cx="25.3" cy="25.3" r="1.3" fill="rgba(255,255,255,0.5)"></circle>
    <rect x="29.3" y="24.3" width="18.7" height="1.7" rx="0.85" fill="rgba(255,255,255,0.35)"></rect>
    <rect x="18.7" y="33.3" width="42.7" height="13.3" rx="5.3" fill="#7E96B4"></rect>
    <circle cx="28" cy="40" r="3.3" stroke="rgba(255,255,255,0.55)" stroke-width="1.2" fill="none"></circle>
    <line x1="28" y1="38" x2="28" y2="40" stroke="rgba(255,255,255,0.6)" stroke-width="1" stroke-linecap="round"></line>
    <line x1="28" y1="40" x2="30" y2="41.3" stroke="rgba(255,255,255,0.6)" stroke-width="1" stroke-linecap="round"></line>
    <rect x="36" y="38.7" width="18.7" height="1.7" rx="0.85" fill="rgba(255,255,255,0.4)"></rect>
    <rect x="18.7" y="50.7" width="42.7" height="13.3" rx="5.3" fill="#82A983"></rect>
    <rect x="25.3" y="56" width="12" height="1.7" rx="0.85" fill="rgba(255,255,255,0.6)"></rect>
    <rect x="40" y="56" width="16" height="1.7" rx="0.85" fill="rgba(255,255,255,0.3)"></rect>
  </g>


  <text x="640" y="180" text-anchor="middle" font-family="system-ui, -apple-system, 'Segoe UI', sans-serif" font-size="48" font-weight="600" letter-spacing="-1.5" fill="#211E18">planifie</text>


  <text x="640" y="210" text-anchor="middle" font-family="system-ui, -apple-system, 'Segoe UI', sans-serif" font-size="16" font-weight="400" letter-spacing="0.5" fill="#8A8275">timeline-based productivity &amp; journaling</text>





  <g transform="translate(496, 242)">
    <rect width="24" height="24" rx="5" fill="#C2A158" opacity="0.2"></rect>
    <circle cx="7" cy="8" r="1.8" fill="#C2A158"></circle>
    <rect x="11" y="6.5" width="8" height="2.5" rx="1.25" fill="#C2A158" opacity="0.7"></rect>
    <circle cx="7" cy="16" r="1.8" fill="#C2A158" opacity="0.6"></circle>
    <rect x="11" y="14.5" width="6" height="2.5" rx="1.25" fill="#C2A158" opacity="0.5"></rect>
    <text x="32" y="16" font-family="system-ui, -apple-system, 'Segoe UI', sans-serif" font-size="15" font-weight="500" letter-spacing="0.3" fill="#927636" dominant-baseline="middle">notes</text>
  </g>


  <g transform="translate(586, 242)">
    <rect width="24" height="24" rx="5" fill="#7E96B4" opacity="0.2"></rect>
    <circle cx="12" cy="12" r="6.5" stroke="#7E96B4" stroke-width="2" fill="none"></circle>
    <line x1="12" y1="7.5" x2="12" y2="12" stroke="#7E96B4" stroke-width="1.8" stroke-linecap="round"></line>
    <line x1="12" y1="12" x2="15" y2="14" stroke="#7E96B4" stroke-width="1.8" stroke-linecap="round"></line>
    <text x="32" y="16" font-family="system-ui, -apple-system, 'Segoe UI', sans-serif" font-size="15" font-weight="500" letter-spacing="0.3" fill="#566f92" dominant-baseline="middle">timers</text>
  </g>


  <g transform="translate(684, 242)">
    <rect width="24" height="24" rx="5" fill="#82A983" opacity="0.2"></rect>
    <rect x="5" y="7" width="14" height="2.5" rx="1.25" fill="#82A983" opacity="0.7"></rect>
    <rect x="5" y="11.5" width="10" height="2.5" rx="1.25" fill="#82A983" opacity="0.5"></rect>
    <rect x="5" y="16" width="12" height="2.5" rx="1.25" fill="#82A983" opacity="0.4"></rect>
    <text x="32" y="16" font-family="system-ui, -apple-system, 'Segoe UI', sans-serif" font-size="15" font-weight="500" letter-spacing="0.3" fill="#56814f" dominant-baseline="middle">docs</text>
  </g>
</svg>
