<svg width="120" height="120" viewBox="0 0 120 120" fill="none" xmlns="http://www.w3.org/2000/svg">
  <rect width="120" height="120" rx="26" fill="#3231bc"></rect>

  <rect x="28" y="24" width="64" height="20" rx="8" fill="#C2A158"></rect>
  <circle cx="38" cy="30" r="2" fill="rgba(255,255,255,0.7)"></circle>
  <rect x="44" y="28.5" width="20" height="2.5" rx="1.25" fill="rgba(255,255,255,0.5)"></rect>
  <circle cx="38" cy="38" r="2" fill="rgba(255,255,255,0.5)"></circle>
  <rect x="44" y="36.5" width="28" height="2.5" rx="1.25" fill="rgba(255,255,255,0.35)"></rect>

  <rect x="28" y="50" width="64" height="20" rx="8" fill="#7E96B4"></rect>
  <circle cx="42" cy="60" r="5" stroke="rgba(255,255,255,0.55)" stroke-width="1.8" fill="none"></circle>
  <line x1="42" y1="57" x2="42" y2="60" stroke="rgba(255,255,255,0.6)" stroke-width="1.5" stroke-linecap="round"></line>
  <line x1="42" y1="60" x2="45" y2="62" stroke="rgba(255,255,255,0.6)" stroke-width="1.5" stroke-linecap="round"></line>
  <rect x="54" y="58" width="28" height="2.5" rx="1.25" fill="rgba(255,255,255,0.4)"></rect>

  <rect x="28" y="76" width="64" height="20" rx="8" fill="#82A983"></rect>
  <rect x="38" y="84" width="18" height="2.5" rx="1.25" fill="rgba(255,255,255,0.6)"></rect>
  <rect x="60" y="84" width="24" height="2.5" rx="1.25" fill="rgba(255,255,255,0.3)"></rect>
</svg>
